<svg width="184" height="48" viewBox="0 0 184 48" fill="none" xmlns="http://www.w3.org/2000/svg">
<path d="M0 47V0.454544H20.1818C23.7273 0.454544 26.7045 0.931817 29.1136 1.88636C31.5379 2.84091 33.3636 4.18939 34.5909 5.93182C35.8333 7.67424 36.4545 9.72727 36.4545 12.0909C36.4545 13.803 36.0758 15.3636 35.3182 16.7727C34.5758 18.1818 33.5303 19.3636 32.1818 20.3182C30.8333 21.2576 29.2576 21.9091 27.4545 22.2727V22.7273C29.4545 22.803 31.2727 23.3106 32.9091 24.25C34.5455 25.1742 35.8485 26.4545 36.8182 28.0909C37.7879 29.7121 38.2727 31.6212 38.2727 33.8182C38.2727 36.3636 37.6061 38.6288 36.2727 40.6136C34.9545 42.5985 33.0758 44.1591 30.6364 45.2955C28.197 46.4318 25.2879 47 21.9091 47H0ZM12.6364 36.9091H18.5455C20.6667 36.9091 22.2576 36.5152 23.3182 35.7273C24.3788 34.9242 24.9091 33.7424 24.9091 32.1818C24.9091 31.0909 24.6591 30.1667 24.1591 29.4091C23.6591 28.6515 22.947 28.0758 22.0227 27.6818C21.1136 27.2879 20.0152 27.0909 18.7273 27.0909H12.6364V36.9091ZM12.6364 19.2727H17.8182C18.9242 19.2727 19.9015 19.0985 20.75 18.75C21.5985 18.4015 22.2576 17.9015 22.7273 17.25C23.2121 16.5833 23.4545 15.7727 23.4545 14.8182C23.4545 13.3788 22.9394 12.2803 21.9091 11.5227C20.8788 10.75 19.5758 10.3636 18 10.3636H12.6364V19.2727ZM42.9318 47V12.0909H55.1136V18.7273H55.4773C56.1136 16.2727 57.1212 14.4773 58.5 13.3409C59.8939 12.2045 61.5227 11.6364 63.3864 11.6364C63.9318 11.6364 64.4697 11.6818 65 11.7727C65.5455 11.8485 66.0682 11.9621 66.5682 12.1136V22.8182C65.947 22.6061 65.1818 22.447 64.2727 22.3409C63.3636 22.2348 62.5833 22.1818 61.9318 22.1818C60.7045 22.1818 59.5985 22.4621 58.6136 23.0227C57.6439 23.5682 56.8788 24.3409 56.3182 25.3409C55.7576 26.3258 55.4773 27.4848 55.4773 28.8182V47H42.9318ZM78.7841 47.5455C76.5568 47.5455 74.5871 47.1818 72.875 46.4545C71.178 45.7121 69.8447 44.5909 68.875 43.0909C67.9053 41.5909 67.4205 39.6818 67.4205 37.3636C67.4205 35.4545 67.7462 33.8258 68.3977 32.4773C69.0492 31.1136 69.9583 30 71.125 29.1364C72.2917 28.2727 73.6477 27.6136 75.1932 27.1591C76.7538 26.7045 78.4356 26.4091 80.2386 26.2727C82.1932 26.1212 83.7614 25.9394 84.9432 25.7273C86.1402 25.5 87.0038 25.1894 87.5341 24.7955C88.0644 24.3864 88.3295 23.8485 88.3295 23.1818V23.0909C88.3295 22.1818 87.9811 21.4848 87.2841 21C86.5871 20.5152 85.6932 20.2727 84.6023 20.2727C83.4053 20.2727 82.428 20.5379 81.6705 21.0682C80.928 21.5833 80.4811 22.3788 80.3295 23.4545H68.7841C68.9356 21.3333 69.6098 19.3788 70.8068 17.5909C72.0189 15.7879 73.7841 14.3485 76.1023 13.2727C78.4205 12.1818 81.3144 11.6364 84.7841 11.6364C87.2841 11.6364 89.5265 11.9318 91.5114 12.5227C93.4962 13.0985 95.1856 13.9091 96.5795 14.9545C97.9735 15.9848 99.0341 17.197 99.7614 18.5909C100.504 19.9697 100.875 21.4697 100.875 23.0909V47H89.1477V42.0909H88.875C88.178 43.3939 87.3295 44.447 86.3295 45.25C85.3447 46.053 84.2159 46.6364 82.9432 47C81.6856 47.3636 80.2992 47.5455 78.7841 47.5455ZM82.875 39.6364C83.8295 39.6364 84.7235 39.4394 85.5568 39.0455C86.4053 38.6515 87.0947 38.0833 87.625 37.3409C88.1553 36.5985 88.4205 35.697 88.4205 34.6364V31.7273C88.0871 31.8636 87.7311 31.9924 87.3523 32.1136C86.9886 32.2348 86.5947 32.3485 86.1705 32.4545C85.7614 32.5606 85.322 32.6591 84.8523 32.75C84.3977 32.8409 83.9205 32.9242 83.4205 33C82.4508 33.1515 81.6553 33.4015 81.0341 33.75C80.428 34.0833 79.9735 34.5 79.6705 35C79.3826 35.4848 79.2386 36.0303 79.2386 36.6364C79.2386 37.6061 79.5795 38.3485 80.2614 38.8636C80.9432 39.3788 81.8144 39.6364 82.875 39.6364ZM119.415 27.3636V47H106.869V12.0909H118.778V18.7273H119.142C119.9 16.5152 121.233 14.7803 123.142 13.5227C125.066 12.2652 127.309 11.6364 129.869 11.6364C132.339 11.6364 134.483 12.2045 136.301 13.3409C138.134 14.4621 139.551 16.0076 140.551 17.9773C141.566 19.947 142.066 22.197 142.051 24.7273V47H129.506V27.3636C129.521 25.6364 129.081 24.2803 128.188 23.2955C127.309 22.3106 126.081 21.8182 124.506 21.8182C123.475 21.8182 122.574 22.0455 121.801 22.5C121.044 22.9394 120.46 23.5758 120.051 24.4091C119.642 25.2273 119.43 26.2121 119.415 27.3636ZM160.881 47.4545C158.396 47.4545 156.108 46.803 154.017 45.5C151.941 44.197 150.275 42.2197 149.017 39.5682C147.775 36.9167 147.153 33.5758 147.153 29.5455C147.153 25.3333 147.805 21.9091 149.108 19.2727C150.426 16.6364 152.123 14.7045 154.199 13.4773C156.29 12.25 158.487 11.6364 160.79 11.6364C162.517 11.6364 164.032 11.9394 165.335 12.5455C166.638 13.1364 167.729 13.9318 168.608 14.9318C169.487 15.9167 170.153 17 170.608 18.1818H170.79V0.454544H183.335V47H170.881V41.2727H170.608C170.123 42.4545 169.426 43.5152 168.517 44.4545C167.623 45.3788 166.532 46.1136 165.244 46.6591C163.972 47.1894 162.517 47.4545 160.881 47.4545ZM165.517 37.8182C166.669 37.8182 167.653 37.4848 168.472 36.8182C169.305 36.1364 169.941 35.1818 170.381 33.9545C170.835 32.7121 171.062 31.2424 171.062 29.5455C171.062 27.8182 170.835 26.3409 170.381 25.1136C169.941 23.8712 169.305 22.9242 168.472 22.2727C167.653 21.6061 166.669 21.2727 165.517 21.2727C164.366 21.2727 163.381 21.6061 162.562 22.2727C161.759 22.9242 161.138 23.8712 160.699 25.1136C160.275 26.3409 160.062 27.8182 160.062 29.5455C160.062 31.2727 160.275 32.7576 160.699 34C161.138 35.2273 161.759 36.1742 162.562 36.8409C163.381 37.4924 164.366 37.8182 165.517 37.8182Z" fill="url(#paint0_linear_13_2)"/>
<defs>
<linearGradient id="paint0_linear_13_2" x1="-13.5556" y1="24" x2="206.352" y2="24" gradientUnits="userSpaceOnUse">
<stop offset="0.9999" stop-color="#3C82F6"/>
<stop offset="1" stop-color="#2563EB"/>
</linearGradient>
</defs>
</svg>
