<svg width="224" height="47" viewBox="0 0 224 47" fill="none" xmlns="http://www.w3.org/2000/svg">
<path d="M0 47V0.454544H20.1818C23.7273 0.454544 26.7045 0.931817 29.1136 1.88636C31.5379 2.84091 33.3636 4.18939 34.5909 5.93182C35.8333 7.67424 36.4545 9.72727 36.4545 12.0909C36.4545 13.803 36.0758 15.3636 35.3182 16.7727C34.5758 18.1818 33.5303 19.3636 32.1818 20.3182C30.8333 21.2576 29.2576 21.9091 27.4545 22.2727V22.7273C29.4545 22.803 31.2727 23.3106 32.9091 24.25C34.5455 25.1742 35.8485 26.4545 36.8182 28.0909C37.7879 29.7121 38.2727 31.6212 38.2727 33.8182C38.2727 36.3636 37.6061 38.6288 36.2727 40.6136C34.9545 42.5985 33.0758 44.1591 30.6364 45.2955C28.197 46.4318 25.2879 47 21.9091 47H0ZM12.6364 36.9091H18.5455C20.6667 36.9091 22.2576 36.5152 23.3182 35.7273C24.3788 34.9242 24.9091 33.7424 24.9091 32.1818C24.9091 31.0909 24.6591 30.1667 24.1591 29.4091C23.6591 28.6515 22.947 28.0758 22.0227 27.6818C21.1136 27.2879 20.0152 27.0909 18.7273 27.0909H12.6364V36.9091ZM12.6364 19.2727H17.8182C18.9242 19.2727 19.9015 19.0985 20.75 18.75C21.5985 18.4015 22.2576 17.9015 22.7273 17.25C23.2121 16.5833 23.4545 15.7727 23.4545 14.8182C23.4545 13.3788 22.9394 12.2803 21.9091 11.5227C20.8788 10.75 19.5758 10.3636 18 10.3636H12.6364V19.2727ZM42.75 47V0.454544H62.8409C66.2955 0.454544 69.3182 1.08333 71.9091 2.34091C74.5 3.59848 76.5152 5.40909 77.9545 7.77273C79.3939 10.1364 80.1136 12.9697 80.1136 16.2727C80.1136 19.6061 79.3712 22.4167 77.8864 24.7045C76.4167 26.9924 74.3485 28.7197 71.6818 29.8864C69.0303 31.053 65.9318 31.6364 62.3864 31.6364H50.3864V21.8182H59.8409C61.3258 21.8182 62.5909 21.6364 63.6364 21.2727C64.697 20.8939 65.5076 20.2955 66.0682 19.4773C66.6439 18.6591 66.9318 17.5909 66.9318 16.2727C66.9318 14.9394 66.6439 13.8561 66.0682 13.0227C65.5076 12.1742 64.697 11.553 63.6364 11.1591C62.5909 10.75 61.3258 10.5455 59.8409 10.5455H55.3864V47H42.75ZM70.0227 25.6364L81.6591 47H67.9318L56.5682 25.6364H70.0227ZM97.5909 47H83.9545L99.3182 0.454544H116.591L131.955 47H118.318L108.136 13.2727H107.773L97.5909 47ZM95.0455 28.6364H120.682V38.0909H95.0455V28.6364ZM176.71 0.454544V47H166.165L149.347 22.5455H149.074V47H136.438V0.454544H147.165L163.71 24.8182H164.074V0.454544H176.71ZM200.597 47H182.688V0.454544H200.415C205.203 0.454544 209.339 1.38636 212.824 3.25C216.324 5.09848 219.021 7.76515 220.915 11.25C222.824 14.7197 223.778 18.8788 223.778 23.7273C223.778 28.5758 222.831 32.7424 220.938 36.2273C219.044 39.697 216.362 42.3636 212.892 44.2273C209.422 46.0758 205.324 47 200.597 47ZM195.324 36.2727H200.142C202.445 36.2727 204.407 35.9015 206.028 35.1591C207.665 34.4167 208.907 33.1364 209.756 31.3182C210.619 29.5 211.051 26.9697 211.051 23.7273C211.051 20.4848 210.612 17.9545 209.733 16.1364C208.869 14.3182 207.597 13.0379 205.915 12.2955C204.248 11.553 202.203 11.1818 199.778 11.1818H195.324V36.2727Z" fill="url(#paint0_linear_14_2)"/>
<defs>
<linearGradient id="paint0_linear_14_2" x1="-15.7778" y1="24" x2="250.426" y2="24" gradientUnits="userSpaceOnUse">
<stop offset="0.770833" stop-color="#3C82F6"/>
<stop offset="1" stop-color="#EB25E3"/>
</linearGradient>
</defs>
</svg>
